<?xml version="1.0" encoding="utf-8"?>
<!-- Generator: Adobe Illustrator 21.1.0, SVG Export Plug-In . SVG Version: 6.00 Build 0)  -->
<svg version="1.1" id="Capa_1" xmlns="http://www.w3.org/2000/svg" xmlns:xlink="http://www.w3.org/1999/xlink" x="0px" y="0px"
	 viewBox="0 0 472.8 472.8" style="enable-background:new 0 0 472.8 472.8;" xml:space="preserve">
<style type="text/css">
	.st0{fill:#FFFFFF;}
</style>
<g>
	<g>
		<g>
			<path class="st0" d="M338.6,0H134.2c-13.6,0-24.6,10.6-24.6,23.7v425.4c0,13,11,23.7,24.6,23.7h204.5c13.6,0,24.6-10.6,24.6-23.7
				V23.7C363.3,10.6,352.2,0,338.6,0z M200.7,36.8h71.4v5h-71.4C200.7,41.8,200.7,36.8,200.7,36.8z M236.4,448
				c-7.6,0-13.8-6.2-13.8-13.8c0-7.6,6.2-13.7,13.8-13.7s13.8,6.2,13.8,13.7C250.2,441.8,244,448,236.4,448z M346.5,396.5H126.4
				V70.3h220.1V396.5z"/>
		</g>
	</g>
	<g>
		<g id="file-download">
			<path class="st0" d="M310.4,210.3h-42.2V147h-63.4v63.4h-42.2l73.9,73.9L310.4,210.3z M162.6,305.4v21.1h147.8v-21.1H162.6z"/>
		</g>
	</g>
</g>
</svg>
