<!-- Generator: Adobe Illustrator 21.1.0, SVG Export Plug-In . SVG Version: 6.00 Build 0)  -->
<svg version="1.1" id="Layer_1" xmlns="http://www.w3.org/2000/svg" xmlns:xlink="http://www.w3.org/1999/xlink" x="0px" y="0px"
	 viewBox="0 0 38 38" style="enable-background:new 0 0 38 38;" xml:space="preserve">
<style type="text/css">
	.st0{clip-path:url(#SVGID_2_);fill:#1E2832;}
	.st1{clip-path:url(#SVGID_2_);fill:#FFFFFF;}
	.st2{clip-path:url(#SVGID_2_);fill:none;stroke:#FFFFFF;stroke-width:3.15;stroke-miterlimit:10;}
	.st3{fill:#FFFFFF;}
</style>
<g>
	<defs>
		<rect id="SVGID_1_" x="86" y="-61.7" width="38.2" height="37.7"/>
	</defs>
	<clipPath id="SVGID_2_">
		<use xlink:href="#SVGID_1_"  style="overflow:visible;"/>
	</clipPath>
	<path class="st0" d="M45.7,17.9c-0.6,0.6-1.3,0.9-2.1,0.9c-0.8,0-1.5-0.3-2.1-0.9L36.7,13l-8.2,8.2v0.1c0,0.7,0.6,1.3,1.3,1.3h27.7
		c0.7,0,1.3-0.6,1.3-1.3v-0.1L50.5,13L45.7,17.9z M28.5,4.8V19l7.1-7.1L28.5,4.8z M57.5,1.2H29.8c-0.7,0-1.3,0.6-1.3,1.3v0.1
		l14.2,14.2c0.3,0.3,0.6,0.4,1,0.4c0.3,0,0.7-0.1,1-0.4L58.7,2.6V2.5C58.7,1.8,58.2,1.2,57.5,1.2 M58.7,19V4.8l-7.1,7.1L58.7,19z"/>
</g>
<path class="st3" d="M5.4,30.7c0-0.4-0.3-0.6-0.6-0.6H2.1c-0.4,0-0.6,0.3-0.6,0.6s0.3,0.6,0.6,0.6h2.6C5.1,31.3,5.4,31,5.4,30.7z
	 M2.1,24.9h2.6c0.4,0,0.6-0.3,0.6-0.6c0-0.4-0.3-0.6-0.6-0.6H2.1c-0.4,0-0.6,0.3-0.6,0.6C1.5,24.6,1.8,24.9,2.1,24.9z M2.1,18.4h2.6
	c0.4,0,0.6-0.3,0.6-0.6c0-0.4-0.3-0.6-0.6-0.6H2.1c-0.4,0-0.6,0.3-0.6,0.6C1.5,18.1,1.8,18.4,2.1,18.4z M2.1,12h2.6
	c0.4,0,0.6-0.3,0.6-0.6s-0.3-0.6-0.6-0.6H2.1c-0.4,0-0.6,0.3-0.6,0.6S1.8,12,2.1,12z M31.2,27.5h-1.3v5.2h1.3c0.7,0,1.3-0.6,1.3-1.3
	v-2.6C32.5,28,31.9,27.5,31.2,27.5z M31.2,8.1h-1.3v5.2h1.3c0.7,0,1.3-0.6,1.3-1.3V9.4C32.5,8.7,31.9,8.1,31.2,8.1z M31.2,14.5h-1.3
	v5.2h1.3c0.7,0,1.3-0.6,1.3-1.3v-2.6C32.5,15.1,31.9,14.5,31.2,14.5z M31.2,21h-1.3v5.2h1.3c0.7,0,1.3-0.6,1.3-1.3v-2.6
	C32.5,21.6,31.9,21,31.2,21z M27.3,5.5H4.1c-0.7,0-1.3,0.6-1.3,1.3v2.6h2.3c1.1,0,1.9,0.9,1.9,1.9s-0.9,1.9-1.9,1.9H2.8v2.7h2.3
	c1.1,0,1.9,0.9,1.9,1.9c0,1.1-0.9,1.9-1.9,1.9H2.8v2.5h2.3c1.1,0,1.9,0.9,1.9,1.9c0,1.1-0.9,1.9-1.9,1.9H2.8v2.6h2.3
	c1.1,0,1.9,0.9,1.9,1.9s-0.9,1.9-1.9,1.9H2.8v2.6c0,0.7,0.6,1.3,1.3,1.3h23.2c0.7,0,1.3-0.6,1.3-1.3V6.8C28.6,6.1,28,5.5,27.3,5.5z
	 M10.5,28.8c0,0,0.1-3.4,0.7-4.1c0.4-0.4,2.7-1.4,3.5-1.7c0.9-0.3,0.9-0.6,0.9-0.9c0-0.1,0-1,0-1c-0.3-0.3-0.6-1.6-0.6-1.6
	c-0.3,0.1-0.7-0.4-0.9-1.1c-0.2-0.7-0.1-1.1,0.2-1.2c0,0-0.1-1.5-0.1-2.4c0-0.8,0.2-1.6,0.7-1.6c1.1,0,1.6-0.7,2.8-0.7
	c1.1,0,1.5,0.3,1.8,0.7c0.9,0,1.3,0.7,1.3,1.6c0,0.7-0.1,2.4-0.1,2.4c0.3,0.1,0.4,0.5,0.2,1.2c-0.2,0.7-0.6,1.2-0.9,1.1
	c0,0-0.3,1.3-0.6,1.6c0,0,0,0.9,0,1c0,0.3,0.1,0.6,0.9,0.9c0.9,0.4,3.1,1.3,3.5,1.7c0.7,0.6,0.7,4.1,0.7,4.1H10.5z"/>
</svg>
