<svg xmlns="http://www.w3.org/2000/svg" viewBox="0 0 210.99 230.88"><defs><style>.cls-1{fill:#fa0000;}.cls-2{fill:#adadad;}.cls-3{fill:#fff;}.cls-4{fill:#333;}.cls-5{fill:#e5e5e5;}.cls-6{fill:#232323;}.cls-7{fill:#becbc8;}.cls-8{fill:#899095;}</style></defs><title>Tim</title><g id="Layer_2" data-name="Layer 2"><g id="Layer_1-2" data-name="Layer 1"><circle class="cls-1" cx="105.5" cy="108.5" r="105.5"/><path class="cls-2" d="M185.22,30.84c.6.52,1.23.83,1.78,1.4s1.07,1.18,1.58,1.8c.16.19.31.38.46.58a1.06,1.06,0,0,1,.66.41c.28.38.94.1,1.18-.12s.31-.91.29-1.37a9.62,9.62,0,0,0-.38-2.05,16.86,16.86,0,0,0-1.73-4.16,23.69,23.69,0,0,0-6.13-6.87A33.77,33.77,0,0,0,173,15.38c-1.89-.64-3.84-1.16-5.79-1.62-.77-.18-1.52-.4-2.29-.61a4.36,4.36,0,0,1-2.26-.94.4.4,0,0,1,.14-.61c.9-.54,2.33-.25,3.33-.2a23.45,23.45,0,0,1,2.35.26l.6-1.32A5,5,0,0,0,168,8.78a6,6,0,0,0-1.7-.88,13.5,13.5,0,0,0-3.06-.79,20,20,0,0,0-7.78.52c-8.25,2.09-15.7,8.11-20.83,14.75a49.73,49.73,0,0,0-6.56,11.14,58.75,58.75,0,0,0-2.42,7.33,25.18,25.18,0,0,1,3.2,1.23.58.58,0,0,1-.24,1.12,35.43,35.43,0,0,1-3.57,0c-.83,0-1.66-.09-2.48-.16-2-.16-3.94-.38-5.89-.53-3.81-.28-7.62-.52-11.44-.61a110.81,110.81,0,0,0-18,.66c-.93.13-1.86.29-2.78.47s-2.06.44-3.07.72a31.13,31.13,0,0,0-7.44,3l-.68.41a30.69,30.69,0,0,0-3.08,2.2,36.05,36.05,0,0,0-6.33,6.78,49.39,49.39,0,0,0-5.38,9.57c-.37.86-.72,1.72-1,2.59-.6,1.58-1.14,3.19-1.62,4.8-.21.71-.42,1.41-.61,2.12C54.56,77.5,54,79.75,53.59,82c-2,10.18-2.07,21.37,2.54,30.89a33.27,33.27,0,0,0,8.39,10.71c4.22,3.61,9.17,6.49,14.78,7a.26.26,0,0,1,0,.52,26.9,26.9,0,0,1-7.17-.61,124.78,124.78,0,0,0-8.25,16A91.87,91.87,0,0,0,57.27,188a93.2,93.2,0,0,0,4.14,21.1c.81,2.54,1.74,5,2.77,7.49a4.84,4.84,0,0,1,4.29,1.36,6.68,6.68,0,0,1,1.61-.84,5.54,5.54,0,0,1,6.36,1.62,4.45,4.45,0,0,1,.81-.42,1.11,1.11,0,0,1,.44-.53c1.5-.93,3.27-.16,4.45,1a9.61,9.61,0,0,1,2.35,4.85c.05.21.09.43.13.64.82-.12,1.63-.26,2.44-.42l.14,0c.24-.59.46-1.18.66-1.78.37-1.12.68-2.26.94-3.41.14-.63.24-1.26.37-1.9a5.11,5.11,0,0,1,.13-.53l-.06.11a.58.58,0,0,1,0-.14,35,35,0,0,1-14.4-6.37c-.33-.26,0-.83.39-.63a45.33,45.33,0,0,0,16,4.3,108.31,108.31,0,0,0,17.83.2c5.25-.3,10.56-.68,15.78-1.36s10.78-1.77,14.92-5.16c.52-.41,1.11.29.78.78A18.22,18.22,0,0,1,130.34,215c.28.77.48,1.59.71,2.29l0,.09a5.85,5.85,0,0,1,1.54-.65,4.91,4.91,0,0,1,4.87,1.24,6.44,6.44,0,0,1,1.6-.84,5.54,5.54,0,0,1,6.36,1.62,4.45,4.45,0,0,1,.81-.42,1.11,1.11,0,0,1,.44-.53c1.5-.93,3.27-.16,4.45,1a8.41,8.41,0,0,1,2.12,3.95c.6-.08,1.19-.17,1.79-.27,0-.12.07-.25.1-.37.7-2.76,1.35-5.52,2-8.29a113.55,113.55,0,0,0,3.54-29.64,86.93,86.93,0,0,0-5.81-28.58c-.15-.39.43-.52.63-.24a42.1,42.1,0,0,1,6.78,15.44A72,72,0,0,1,164,187.4a1.74,1.74,0,0,1,.4.14,6.7,6.7,0,0,0,2.11.65c.4-2,1.58-4.05,3.52-4.34a2.38,2.38,0,0,1,2-.38,3.47,3.47,0,0,1,3.13-2,5.06,5.06,0,0,1,.68,0,15.22,15.22,0,0,0,.8-3.75,27.7,27.7,0,0,0-1.33-9.77,80.2,80.2,0,0,0-3-8.52,89.15,89.15,0,0,0-8.07-15.35,98.94,98.94,0,0,0-11-13.67c-2.13-2.23-4.4-4.35-6.72-6.37l-.62-.51c-.75.65-1.52,1.27-2.32,1.85A38.85,38.85,0,0,1,132,131.31c-4.1,1.27-8.6,2.79-12.93,2.07A.19.19,0,0,1,119,133c4-2.11,8.71-2.6,12.78-4.62a56.88,56.88,0,0,0,10.58-6.33,31.29,31.29,0,0,0,11.16-17c1.71-7.15,1.29-14.83.67-22.09-.21-2.54-.51-5.09-.95-7.61-.21-1.22-.45-2.43-.73-3.63a45.4,45.4,0,0,0-3.77-10.54,36.69,36.69,0,0,0-10.49-12.56c-.71-.55-1.45-1.07-2.21-1.57a24.86,24.86,0,0,1,.52-2.54c1.7-6.77,5.94-13,12.52-15.78a22.16,22.16,0,0,1,30.74,18.83,24.61,24.61,0,0,1-7.32,20.07,27.7,27.7,0,0,1-15.59,7.48c.35,2,.61,4,.8,6.07a30.56,30.56,0,0,0,31.55-19.81A31.62,31.62,0,0,0,190.63,48,36.06,36.06,0,0,0,189,40.56,52.67,52.67,0,0,0,186.89,35c-.28-.6-.57-1.2-.89-1.78s-.63-1.52-1-2.18C184.86,30.86,185.09,30.73,185.22,30.84ZM108.2,103a8.34,8.34,0,0,1-5.22,7.21A27.3,27.3,0,0,1,92.81,112c-3.7.1-7.62-.53-10.66-2.79a11.41,11.41,0,0,1-4.46-8.71,36,36,0,0,1,1.07-10.89,15,15,0,0,1,5.51-8.84,8.68,8.68,0,0,1,7.27-1.59c3.26-.45,6.48-.33,9.49,1.52,3.46,2.14,4.52,6,5.37,9.7.5,2.22.95,4.45,1.3,6.7A24.62,24.62,0,0,1,108.2,103Z"/><circle cx="124.92" cy="90.66" r="8.46"/><circle class="cls-3" cx="122.8" cy="88.55" r="2.91" transform="translate(-12.64 20.89) rotate(-9.25)"/><circle cx="65.93" cy="90.66" r="8.46"/><circle class="cls-3" cx="63.82" cy="88.55" r="2.91" transform="translate(-13.4 11.41) rotate(-9.25)"/><path class="cls-4" d="M42.53,184.39a2.29,2.29,0,0,1,2.2,0,5.3,5.3,0,0,0-1.61,3.69,11.14,11.14,0,0,0,.2,3,2.63,2.63,0,0,1-2.1-.71,3.22,3.22,0,0,1-.65-2.9A4.73,4.73,0,0,1,42.53,184.39Z"/><path class="cls-4" d="M48.61,185.84a5.81,5.81,0,0,1,.81,3.85c-.07.78-.57,3.34-1.92,3S46,189.9,46,188.79a3.32,3.32,0,0,1,.4-1.92c.45-.65,1.27-.69,2-.92A1.23,1.23,0,0,0,48.61,185.84Z"/><path class="cls-2" d="M66.94,128.71a25.39,25.39,0,0,0,2.61,1,75,75,0,0,0-7.9,13.9,94,94,0,0,0-6.54,20.63,92.57,92.57,0,0,0-1.4,23.44,7.28,7.28,0,0,1-1.7.47c-.39-2-1.57-4.06-3.51-4.35a2.4,2.4,0,0,0-2-.38,3.46,3.46,0,0,0-3.12-2,5.34,5.34,0,0,0-.69,0,15.2,15.2,0,0,1-.79-3.75A27.73,27.73,0,0,1,43.18,168a82.44,82.44,0,0,1,3-8.52,89.91,89.91,0,0,1,8.08-15.35,98.2,98.2,0,0,1,11-13.67Q66.05,129.58,66.94,128.71Z"/><path d="M54.17,11.5c-7-1.39-14.24-1.46-20.65,2.06a23.08,23.08,0,0,0-6.81,5.7,20.74,20.74,0,0,0-2.54,3.88,5.18,5.18,0,0,0-.7,2.48,2.63,2.63,0,0,0,1.14,1.88,18.12,18.12,0,0,1,5.28-5c.41-.25,1.12.16.81.67-3.14,5.13-6,10.44-7.06,16.42A27.89,27.89,0,0,0,30.5,63.37,30,30,0,0,0,41.12,70.6a33.12,33.12,0,0,0,6.63,1.92,37.72,37.72,0,0,0,3.83.44l.32,0c.43-1.5.9-3,1.42-4.48a20.08,20.08,0,0,1-4.1-.72,21.61,21.61,0,0,1-11-7.55,28.76,28.76,0,0,1-5.5-23.11c1.56-7.63,6.94-14.64,14.71-16.63,7.39-1.89,15.42,1.19,20.35,6.83A24.68,24.68,0,0,1,73,37.5a32.43,32.43,0,0,1,.88,4.93l.53-.25a36.54,36.54,0,0,1,6.79-2.4A34.91,34.91,0,0,0,80.36,28,33.33,33.33,0,0,0,67,8.86a34.58,34.58,0,0,0-10.83-5c-2-.53-4.48-1.1-6.41-.08a3.24,3.24,0,0,0-1.8,2.3,2.6,2.6,0,0,0,1.34,2.36A17.25,17.25,0,0,1,54.38,11,.3.3,0,0,1,54.17,11.5ZM185.22,30.84c.6.52,1.23.83,1.78,1.4s1.07,1.18,1.58,1.8c.16.19.31.38.46.58a1.06,1.06,0,0,1,.66.41c.28.38.94.1,1.18-.12s.31-.91.3-1.37a10.3,10.3,0,0,0-.39-2.05,17.09,17.09,0,0,0-1.73-4.17,23.78,23.78,0,0,0-6.13-6.86A33.77,33.77,0,0,0,173,15.38c-1.89-.64-3.84-1.16-5.79-1.62-.77-.18-1.53-.4-2.29-.61a4.47,4.47,0,0,1-2.27-.94.41.41,0,0,1,.15-.61c.9-.54,2.33-.25,3.33-.2.78,0,1.57.14,2.35.25l.6-1.31A5,5,0,0,0,168,8.78a6.12,6.12,0,0,0-1.7-.88,13.5,13.5,0,0,0-3.06-.79,20,20,0,0,0-7.78.52c-8.25,2.09-15.7,8.11-20.83,14.75a49.73,49.73,0,0,0-6.56,11.14,58.75,58.75,0,0,0-2.42,7.33,24.47,24.47,0,0,1,3.19,1.23.58.58,0,0,1-.23,1.12,35.62,35.62,0,0,1-3.58,0c-.82,0-1.65-.09-2.47-.16-2-.16-3.94-.38-5.89-.53-3.81-.28-7.62-.52-11.44-.61a110.81,110.81,0,0,0-18,.66c-.93.13-1.86.29-2.78.47s-2.06.44-3.07.72a31.37,31.37,0,0,0-7.45,3l-.67.41a30.69,30.69,0,0,0-3.08,2.2,36.05,36.05,0,0,0-6.33,6.78,48.87,48.87,0,0,0-5.38,9.57c-.37.86-.72,1.72-1,2.59-.6,1.58-1.14,3.19-1.62,4.8-.21.71-.42,1.41-.61,2.12C54.56,77.5,54,79.75,53.59,82c-2,10.18-2.07,21.37,2.54,30.89a33.27,33.27,0,0,0,8.39,10.71c4.22,3.61,9.17,6.49,14.78,7a.26.26,0,0,1,0,.52,26.9,26.9,0,0,1-7.17-.61,124.12,124.12,0,0,0-8.25,16A91.87,91.87,0,0,0,57.27,188a93.2,93.2,0,0,0,4.14,21.1q1.22,3.81,2.77,7.49a4.89,4.89,0,0,1,4.3,1.35,6.75,6.75,0,0,1,1.6-.83,5.54,5.54,0,0,1,6.36,1.62,4.45,4.45,0,0,1,.81-.42,1.11,1.11,0,0,1,.44-.53c1.5-.93,3.27-.16,4.45,1a9.53,9.53,0,0,1,2.35,4.85c.05.21.09.43.14.64q1.22-.18,2.43-.42l.14,0c.24-.59.46-1.18.66-1.78a33.7,33.7,0,0,0,.93-3.41c.15-.63.25-1.26.38-1.9,0-.18.07-.35.12-.53a1.17,1.17,0,0,1-.05.11.58.58,0,0,1,0-.14,35,35,0,0,1-14.4-6.37c-.33-.26,0-.83.39-.63a45.33,45.33,0,0,0,16,4.3,108.32,108.32,0,0,0,17.83.2c5.25-.3,10.56-.68,15.78-1.37s10.78-1.76,14.92-5.15c.52-.42,1.11.29.78.78A18.22,18.22,0,0,1,130.34,215c.28.77.48,1.59.71,2.29a.94.94,0,0,0,0,.09,5.53,5.53,0,0,1,1.54-.65,5,5,0,0,1,4.87,1.23,6.75,6.75,0,0,1,1.6-.83,5.54,5.54,0,0,1,6.36,1.62,4.45,4.45,0,0,1,.81-.42,1.11,1.11,0,0,1,.44-.53c1.5-.93,3.27-.16,4.45,1a8.46,8.46,0,0,1,2.12,3.95c.6-.08,1.2-.17,1.79-.27l.1-.37c.7-2.76,1.35-5.52,2-8.29a114,114,0,0,0,3.54-29.64,86.93,86.93,0,0,0-5.81-28.58c-.15-.39.43-.52.63-.24a42.1,42.1,0,0,1,6.78,15.44A72,72,0,0,1,164,187.4a1.74,1.74,0,0,1,.4.14,7,7,0,0,0,2.11.66c.4-2,1.58-4.06,3.52-4.35a2.38,2.38,0,0,1,2-.38,3.48,3.48,0,0,1,3.13-2,5.06,5.06,0,0,1,.68,0,15.22,15.22,0,0,0,.8-3.75,27.73,27.73,0,0,0-1.33-9.77,80.2,80.2,0,0,0-3-8.52,89.15,89.15,0,0,0-8.07-15.35,98.94,98.94,0,0,0-11-13.67c-2.13-2.23-4.4-4.35-6.72-6.37l-.62-.51c-.75.65-1.52,1.27-2.32,1.85A38.85,38.85,0,0,1,132,131.31c-4.1,1.27-8.6,2.79-12.93,2.07A.19.19,0,0,1,119,133c4-2.11,8.71-2.6,12.78-4.62a56.47,56.47,0,0,0,10.57-6.33,31.25,31.25,0,0,0,11.17-17c1.71-7.15,1.29-14.83.67-22.09-.21-2.54-.51-5.09-.95-7.61-.21-1.22-.45-2.43-.73-3.63a45.4,45.4,0,0,0-3.77-10.54,36.69,36.69,0,0,0-10.49-12.56c-.71-.55-1.45-1.07-2.21-1.57.13-.85.3-1.7.51-2.54,1.71-6.77,5.95-13,12.53-15.78a22.16,22.16,0,0,1,30.74,18.83,24.64,24.64,0,0,1-7.32,20.07,27.7,27.7,0,0,1-15.59,7.48c.35,2,.61,4,.8,6.07a30.56,30.56,0,0,0,31.55-19.81A31.62,31.62,0,0,0,190.63,48,36.06,36.06,0,0,0,189,40.56,52.67,52.67,0,0,0,186.89,35c-.28-.6-.57-1.2-.89-1.78s-.63-1.52-1-2.18C184.86,30.86,185.09,30.73,185.22,30.84Zm9.22.49c.43,2.1.3,4.75-1.58,6.13a3.94,3.94,0,0,1-1.58.68,20.8,20.8,0,0,1,.91,2,31.49,31.49,0,0,1,2.09,9.29,32.68,32.68,0,0,1-11,27.06A34.43,34.43,0,0,1,158,84.7c.52,7.88.63,16-1.73,23.57a33.08,33.08,0,0,1-8.07,13.26l1.58,1.24a72.33,72.33,0,0,1,8.2,7.65,92.75,92.75,0,0,1,19.83,33.4c2.1,6.28,3.77,13.27,1.22,19.64a8,8,0,0,1,1.5,2.74,6.09,6.09,0,0,1-1.61,6.53,4.46,4.46,0,0,1-4.67.85,4.23,4.23,0,0,1-2.44,1.89c-2.69.77-4.39-1.39-5.09-3.68a10.22,10.22,0,0,1-2.82-.66c-.14,3.07-.44,6.14-.84,9.19-.7,5.22-1.7,10.42-2.85,15.56-.44,2-.92,3.89-1.41,5.82-.13.53-.26,1.06-.4,1.6s-.33,1.38-.49,2.1c-1.26.21-2.52.37-3.77.52l-.36,0a4.71,4.71,0,0,1-.68,2.48,5.52,5.52,0,0,1-4.4,2.31,7.2,7.2,0,0,1-4-.42,10,10,0,0,1-4.44.51,7.93,7.93,0,0,1-3.63-1.13,5.85,5.85,0,0,1-.48-.34,1.44,1.44,0,0,1-.62.3c-2.17.47-5.41.27-6.84-1.65s-1.35-4.47-.77-6.51a8.28,8.28,0,0,1,.5-1.28c-.18-.61-.35-1.22-.5-1.83a21.12,21.12,0,0,1-.62-2.78c-4.16.7-8.42.93-12.61,1.26-4.46.35-8.92.57-13.39.48a69,69,0,0,1-9.07-.71,1.5,1.5,0,0,1,0,.36,35.31,35.31,0,0,1-1.58,6.14,25.24,25.24,0,0,1-1.55,3.48c-.61.13-1.22.23-1.81.35s-1.06.2-1.59.28l-1.13.17a4.15,4.15,0,0,1-.46,1,5.52,5.52,0,0,1-4.4,2.31,7.2,7.2,0,0,1-4-.42,10,10,0,0,1-4.44.51,7.93,7.93,0,0,1-3.63-1.13l-.49-.34a1.34,1.34,0,0,1-.62.3c-2.16.47-5.4.27-6.84-1.65s-1.34-4.47-.76-6.51A7.39,7.39,0,0,1,61,218.16,95.1,95.1,0,0,1,57.34,208,93.27,93.27,0,0,1,54,191.34a9.64,9.64,0,0,1-2.21.45c-.7,2.29-2.41,4.45-5.09,3.68a4.25,4.25,0,0,1-2.45-1.89,4.46,4.46,0,0,1-4.67-.85A6.08,6.08,0,0,1,38,186.2a7.8,7.8,0,0,1,1.5-2.74c-2.55-6.37-.88-13.36,1.22-19.64a92.75,92.75,0,0,1,19.83-33.4c1.07-1.16,2.19-2.29,3.34-3.4-.47-.31-.95-.63-1.4-1a34,34,0,0,1-10.19-13.11c-4.91-10.81-4.26-23.4-1.73-34.72.18-.8.36-1.6.56-2.4-.9,0-1.78,0-2.59-.11a30.63,30.63,0,0,1-8.45-1.89A31.4,31.4,0,0,1,20.51,52.06a33.6,33.6,0,0,1-.09-14.6,28.74,28.74,0,0,1,2.79-7.69,4,4,0,0,1-2.08-1.42c-1.33-1.76-1-4.07-.24-6a24.11,24.11,0,0,1,7.87-9.66,25,25,0,0,1,16.47-5,3.66,3.66,0,0,1-.34-1.2c-.29-2.68,1.77-5,4.13-5.93C51.7-.46,54.65.08,57.36.73A34.26,34.26,0,0,1,64.9,3.56,36.7,36.7,0,0,1,85,39c1.82-.31,3.66-.52,5.5-.68a119.31,119.31,0,0,1,18.33-.11c3.23.23,6.42.61,9.62,1.1,1.47.22,3,.48,4.46.82a42.38,42.38,0,0,1,4-11.88c4.84-9.75,12.92-18.16,23-22.55,5.22-2.27,11.56-3.5,17.06-1.46,2.47.91,5.29,3.26,4.59,6.21a4.16,4.16,0,0,1-.77,1.6,42.57,42.57,0,0,1,6.66,1.81,29.83,29.83,0,0,1,11.41,7.22A21.24,21.24,0,0,1,194.44,31.33Zm-17.1,159.06a3.22,3.22,0,0,0,.65-2.9,4.73,4.73,0,0,0-2-3.1,2.31,2.31,0,0,0-2.21,0,5.26,5.26,0,0,1,1.62,3.69,11.56,11.56,0,0,1-.2,3A2.63,2.63,0,0,0,177.34,190.39Zm-4.81-1.6a3.32,3.32,0,0,0-.39-1.92c-.45-.65-1.27-.69-2-.92a1.23,1.23,0,0,1-.23-.11,5.75,5.75,0,0,0-.81,3.85c.06.78.57,3.34,1.92,3S172.52,189.9,172.53,188.79Zm-2-124.43c8.59-9.08,7.12-25.69-4.53-31.58a19,19,0,0,0-17.11,0,18.49,18.49,0,0,0-7.26,7.46,36,36,0,0,0-2.48,5.54c6.07,3.25,10.67,9.26,13.53,15.36a52,52,0,0,1,3.51,10.45A24.17,24.17,0,0,0,170.57,64.36ZM150.9,226.67a4.49,4.49,0,0,0-.18-2.82,8.11,8.11,0,0,0-1.11-2.78c-.67-.9-1.49-1-2.47-1.24a4.8,4.8,0,0,0-1.56,2,7.65,7.65,0,0,0-.51,3.11,4.26,4.26,0,0,0,.53,2.34c.68.85,2,.59,3,.49S150.49,227.53,150.9,226.67Zm-8.33.89a7.49,7.49,0,0,1-.28-1.87,9.91,9.91,0,0,1,1.64-5.46,4.75,4.75,0,0,0-6.47,2.86c-.6,1.64-.37,3.35,1.32,4.15A6.92,6.92,0,0,0,142.57,227.56Zm-6.7-8.12a4.18,4.18,0,0,0-5.12,3.32c-.2,1-.32,2.86.51,3.61s2,.54,3.08.49a7.08,7.08,0,0,1-.13-4.16A8.63,8.63,0,0,1,135.87,219.44Zm-54,7.23a4.49,4.49,0,0,0-.18-2.82,8.11,8.11,0,0,0-1.11-2.78,3.78,3.78,0,0,0-2.47-1.24,4.9,4.9,0,0,0-1.57,2,7.65,7.65,0,0,0-.5,3.11,4.26,4.26,0,0,0,.53,2.34c.68.85,2,.59,3,.49S81.48,227.53,81.89,226.67Zm-8.33.89a7.06,7.06,0,0,1-.28-1.87,9.91,9.91,0,0,1,1.64-5.46,4.75,4.75,0,0,0-6.47,2.86c-.6,1.64-.37,3.35,1.32,4.15A6.92,6.92,0,0,0,73.56,227.56ZM70.18,44.61c0-.59,0-1.19-.06-1.78A24.78,24.78,0,0,0,69,37a19.76,19.76,0,0,0-5.56-8.72c-4.61-4.07-11.52-6-17.3-3.34C39.81,27.8,36.34,34.31,35.9,41a25.63,25.63,0,0,0,6.65,19,18.78,18.78,0,0,0,8.86,5.22,21.91,21.91,0,0,0,2.93.53,52.77,52.77,0,0,1,8.42-14.45A36.45,36.45,0,0,1,70.18,44.61Zm-.63,85.15a25.39,25.39,0,0,1-2.61-1q-.89.87-1.74,1.77a98.2,98.2,0,0,0-11,13.67,89.91,89.91,0,0,0-8.08,15.35,82.44,82.44,0,0,0-3,8.52,27.73,27.73,0,0,0-1.33,9.77,15.2,15.2,0,0,0,.79,3.75,5.34,5.34,0,0,1,.69,0,3.46,3.46,0,0,1,3.12,2,2.4,2.4,0,0,1,2,.38c1.94.29,3.12,2.33,3.51,4.35a7.28,7.28,0,0,0,1.7-.47,92.57,92.57,0,0,1,1.4-23.44,94,94,0,0,1,6.54-20.63A75,75,0,0,1,69.55,129.76Zm-2.7,89.68a4.17,4.17,0,0,0-5.11,3.32c-.21,1-.32,2.86.51,3.61s2,.54,3.08.49a7.08,7.08,0,0,1-.13-4.16A8.6,8.6,0,0,1,66.85,219.44ZM49.42,189.69a5.81,5.81,0,0,0-.81-3.85,1.23,1.23,0,0,1-.23.11c-.69.23-1.51.27-2,.92a3.32,3.32,0,0,0-.4,1.92c0,1.11.13,3.49,1.48,3.87S49.35,190.47,49.42,189.69Zm-4.69-5.29a2.29,2.29,0,0,0-2.2,0,4.73,4.73,0,0,0-2,3.1,3.22,3.22,0,0,0,.65,2.9,2.63,2.63,0,0,0,2.1.71,11.14,11.14,0,0,1-.2-3A5.3,5.3,0,0,1,44.73,184.4Z"/><path d="M107.7,97.14a24.62,24.62,0,0,1,.5,5.86,8.34,8.34,0,0,1-5.22,7.21A27.5,27.5,0,0,1,92.81,112c-3.7.1-7.62-.53-10.66-2.79a11.41,11.41,0,0,1-4.46-8.71,36.34,36.34,0,0,1,1.07-10.89,15,15,0,0,1,5.51-8.84,8.68,8.68,0,0,1,7.27-1.6c3.26-.44,6.48-.32,9.48,1.53,3.47,2.14,4.53,6,5.38,9.7C106.9,92.66,107.35,94.89,107.7,97.14Zm-5.65,9.73c2.53-1.35,3-3.73,2.71-6.42-.05-.51-.11-1-.17-1.54a7.69,7.69,0,0,0-1.38.68,8.41,8.41,0,0,0-2.43,2.47A9.41,9.41,0,0,0,99.4,106c-.05.5,0,1.21,0,1.88A11.2,11.2,0,0,0,102.05,106.87Zm2.25-10c-.33-2.14-.76-4.27-1.24-6.37-.68-2.95-1.44-5.91-4.32-7.43-3.06-1.62-6.87-1.64-10.3-1.34a10.43,10.43,0,0,0-4.1,2.94c-2.15,2.59-2.83,6.22-3.2,9.47a42.74,42.74,0,0,0-.33,4.42,5.29,5.29,0,0,1,4.28,3.27,9.28,9.28,0,0,1,.61,5.79l.45.19c2.74,1.07,5.76,1,8.64.68,1-.09,2.07-.18,3.12-.35a8.29,8.29,0,0,1-.16-2.47,9.87,9.87,0,0,1,1.3-4.37,10.38,10.38,0,0,1,3-3.21A9.74,9.74,0,0,1,104.3,96.86Zm-20.14,9.85a17.66,17.66,0,0,0-.28-3.5,4.64,4.64,0,0,0-3-3.22,13.42,13.42,0,0,0,.35,2.37A7.53,7.53,0,0,0,84.16,106.71Z"/><path d="M103,115.91a.54.54,0,0,1,.49.94c-2.58,1.92-6.62,2.71-9.78,2.63a20,20,0,0,1-5.1-.8c-1.35-.39-3.32-.8-4.06-2.12a.09.09,0,0,1,0-.13c1.25-.29,2.69.39,3.91.61a25.84,25.84,0,0,0,5,.39,29.09,29.09,0,0,0,5.11-.38C100.05,116.76,101.48,116.23,103,115.91Z"/><path class="cls-4" d="M61.74,222.76c-.21,1-.32,2.86.51,3.61s2,.54,3.08.49a7,7,0,0,1-.13-4.16,8.6,8.6,0,0,1,1.65-3.26A4.17,4.17,0,0,0,61.74,222.76Z"/><path class="cls-5" d="M63.39,28.26c-4.61-4.07-11.51-6-17.3-3.34C39.81,27.8,36.34,34.31,35.9,41a25.63,25.63,0,0,0,6.65,19,18.78,18.78,0,0,0,8.86,5.22,21.91,21.91,0,0,0,2.93.53,52.77,52.77,0,0,1,8.42-14.45,36.45,36.45,0,0,1,7.42-6.72c0-.59,0-1.19-.06-1.78A24.78,24.78,0,0,0,69,37,19.76,19.76,0,0,0,63.39,28.26Z"/><path class="cls-4" d="M68.45,223.09c-.6,1.64-.37,3.35,1.32,4.15a6.92,6.92,0,0,0,3.79.32,7.06,7.06,0,0,1-.28-1.87,9.91,9.91,0,0,1,1.64-5.46A4.75,4.75,0,0,0,68.45,223.09Z"/><path class="cls-2" d="M49.23,67.78a21.64,21.64,0,0,1-11-7.55,28.79,28.79,0,0,1-5.5-23.11c1.56-7.63,6.94-14.64,14.72-16.63,7.38-1.89,15.41,1.19,20.34,6.83A24.68,24.68,0,0,1,73,37.5a32.43,32.43,0,0,1,.88,4.93l.53-.25a36.54,36.54,0,0,1,6.79-2.4A34.91,34.91,0,0,0,80.36,28,33.33,33.33,0,0,0,67,8.86a34.58,34.58,0,0,0-10.83-5c-2-.53-4.48-1.1-6.41-.08a3.24,3.24,0,0,0-1.8,2.3,2.62,2.62,0,0,0,1.33,2.36A17.43,17.43,0,0,1,54.38,11a.3.3,0,0,1-.21.54c-7-1.39-14.24-1.46-20.65,2.06a23.08,23.08,0,0,0-6.81,5.7,21,21,0,0,0-2.54,3.87,5.25,5.25,0,0,0-.7,2.49,2.6,2.6,0,0,0,1.14,1.88,18.12,18.12,0,0,1,5.28-5c.41-.25,1.13.16.81.67-3.14,5.13-6,10.44-7,16.42A27.86,27.86,0,0,0,30.5,63.37,30,30,0,0,0,41.12,70.6a33.12,33.12,0,0,0,6.63,1.92,37.72,37.72,0,0,0,3.83.44l.32,0c.43-1.5.9-3,1.43-4.48A19.84,19.84,0,0,1,49.23,67.78Z"/><path class="cls-4" d="M99.05,101.29a10.52,10.52,0,0,1,3-3.22,10.11,10.11,0,0,1,2.24-1.21c-.33-2.14-.76-4.27-1.24-6.37-.68-2.95-1.44-5.91-4.32-7.43-3.07-1.62-6.87-1.64-10.3-1.34a10.43,10.43,0,0,0-4.1,2.94c-2.15,2.59-2.83,6.22-3.2,9.47-.16,1.44-.32,2.94-.34,4.42a5.29,5.29,0,0,1,4.29,3.27,9.28,9.28,0,0,1,.61,5.79l.45.19c2.75,1.07,5.76,1,8.64.68,1-.09,2.07-.18,3.12-.35a8.64,8.64,0,0,1-.16-2.47A9.91,9.91,0,0,1,99.05,101.29Z"/><path class="cls-6" d="M104.59,98.91a7.69,7.69,0,0,0-1.38.68,8.29,8.29,0,0,0-2.43,2.47A9.41,9.41,0,0,0,99.4,106c-.05.5,0,1.21,0,1.88a11.2,11.2,0,0,0,2.61-1c2.53-1.35,3-3.73,2.71-6.42C104.71,99.93,104.65,99.42,104.59,98.91Z"/><path class="cls-5" d="M170.57,64.36c8.59-9.08,7.12-25.69-4.53-31.58a19,19,0,0,0-17.1,0,18.36,18.36,0,0,0-7.26,7.46,35.14,35.14,0,0,0-2.49,5.54c6.07,3.25,10.67,9.26,13.53,15.36a52,52,0,0,1,3.51,10.45A24.17,24.17,0,0,0,170.57,64.36Z"/><path class="cls-6" d="M80.84,100a13.42,13.42,0,0,0,.35,2.37,7.53,7.53,0,0,0,3,4.35,17.66,17.66,0,0,0-.28-3.5A4.64,4.64,0,0,0,80.84,100Z"/><path class="cls-4" d="M149.61,221.07c-.67-.9-1.49-1-2.47-1.24a4.8,4.8,0,0,0-1.56,2,7.49,7.49,0,0,0-.51,3.11,4.26,4.26,0,0,0,.53,2.34c.68.85,2,.59,3,.49s1.9-.25,2.31-1.11a4.49,4.49,0,0,0-.18-2.82A8.11,8.11,0,0,0,149.61,221.07Z"/><path class="cls-4" d="M137.46,223.09c-.6,1.64-.37,3.35,1.32,4.15a6.94,6.94,0,0,0,3.8.32,6.69,6.69,0,0,1-.29-1.87,9.84,9.84,0,0,1,1.65-5.46A4.75,4.75,0,0,0,137.46,223.09Z"/><path class="cls-4" d="M80.59,221.07c-.67-.9-1.48-1-2.46-1.24a4.8,4.8,0,0,0-1.56,2,7.49,7.49,0,0,0-.51,3.11,4.26,4.26,0,0,0,.53,2.34c.68.85,2,.59,3,.49s1.9-.25,2.31-1.11a4.49,4.49,0,0,0-.18-2.82A7.94,7.94,0,0,0,80.59,221.07Z"/><path class="cls-4" d="M130.75,222.76c-.2,1-.32,2.86.51,3.61s2,.54,3.08.49a7.08,7.08,0,0,1-.13-4.16,8.63,8.63,0,0,1,1.66-3.26A4.18,4.18,0,0,0,130.75,222.76Z"/><path class="cls-4" d="M176,184.39a2.31,2.31,0,0,0-2.21,0,5.26,5.26,0,0,1,1.62,3.69,11.56,11.56,0,0,1-.2,3,2.63,2.63,0,0,0,2.1-.71,3.22,3.22,0,0,0,.65-2.9A4.73,4.73,0,0,0,176,184.39Z"/><path class="cls-4" d="M170.18,186a1.23,1.23,0,0,1-.23-.11,5.75,5.75,0,0,0-.81,3.85c.07.78.57,3.34,1.92,3s1.46-2.76,1.47-3.87a3.24,3.24,0,0,0-.39-1.92C171.69,186.22,170.87,186.18,170.18,186Z"/><path d="M106.4,90.44c-.85-3.74-1.91-7.56-5.37-9.7-3-1.85-6.23-2-9.49-1.52a8.68,8.68,0,0,0-7.27,1.59,15,15,0,0,0-5.51,8.84,36,36,0,0,0-1.07,10.89,11.41,11.41,0,0,0,4.46,8.71c3,2.26,7,2.89,10.66,2.79A27.3,27.3,0,0,0,103,110.21,8.34,8.34,0,0,0,108.2,103a24.62,24.62,0,0,0-.5-5.86C107.35,94.89,106.9,92.66,106.4,90.44ZM81.19,102.36a13.42,13.42,0,0,1-.35-2.37,4.64,4.64,0,0,1,3,3.22,17.66,17.66,0,0,1,.28,3.5A7.53,7.53,0,0,1,81.19,102.36Zm16.72,5.77c-1,.17-2.11.26-3.12.35-2.88.27-5.89.39-8.64-.68l-.45-.19a9.28,9.28,0,0,0-.61-5.79,5.29,5.29,0,0,0-4.29-3.27c0-1.48.18-3,.34-4.42.37-3.25,1-6.88,3.2-9.47a10.43,10.43,0,0,1,4.1-2.94c3.43-.3,7.23-.28,10.3,1.34,2.88,1.52,3.64,4.48,4.32,7.43.48,2.1.91,4.23,1.24,6.37a10.11,10.11,0,0,0-2.24,1.21,10.52,10.52,0,0,0-3,3.22,9.91,9.91,0,0,0-1.3,4.37A8.64,8.64,0,0,0,97.91,108.13Zm4.14-1.26a11.2,11.2,0,0,1-2.61,1c0-.67-.09-1.38,0-1.88a9.41,9.41,0,0,1,1.38-3.9,8.29,8.29,0,0,1,2.43-2.47,7.69,7.69,0,0,1,1.38-.68c.06.51.12,1,.17,1.54C105,103.14,104.58,105.52,102.05,106.87Z"/><path class="cls-5" d="M130,131.93c-3.53,1.08-7.27,2.06-10.9,1.45A.19.19,0,0,1,119,133l.6-.3c-19.31,2.16-33.91,0-41.23-1.62a27.41,27.41,0,0,1-6.27-.64,124.78,124.78,0,0,0-8.25,16A91.87,91.87,0,0,0,57.27,188a94.27,94.27,0,0,0,1.29,9.77,72.47,72.47,0,0,0,16.25,11.49.33.33,0,0,1,.45-.13,45.33,45.33,0,0,0,16,4.3,108.31,108.31,0,0,0,17.83.2c5.25-.3,10.56-.68,15.78-1.36s10.78-1.77,14.92-5.16a.49.49,0,0,1,.72.07C158.14,187.27,138,144,130,131.93Z"/><path class="cls-7" d="M70.12,42.83A24.78,24.78,0,0,0,69,37a19.76,19.76,0,0,0-5.56-8.72c-.39-.34-.8-.67-1.22-1A15.46,15.46,0,0,1,64.71,40c-1,4.62-5.14,7.7-7.7,12.06-2.38,4.09-3.81,8.87-5.79,13.17l.19.06a21.91,21.91,0,0,0,2.93.53,52.77,52.77,0,0,1,8.42-14.45,36.45,36.45,0,0,1,7.42-6.72C70.18,44,70.16,43.42,70.12,42.83Z"/><path class="cls-8" d="M47.75,72.52a37.72,37.72,0,0,0,3.83.44l.32,0c.43-1.5.9-3,1.43-4.48a19.67,19.67,0,0,1-3.5-.56,21,21,0,0,1-3.22,4.35Z"/><path class="cls-8" d="M73.16,38.05a32,32,0,0,1,.75,4.38l.53-.25a36.54,36.54,0,0,1,6.79-2.4,41.27,41.27,0,0,0,.14-4.3C78.53,34.94,75.89,37.06,73.16,38.05Z"/><path class="cls-7" d="M146.29,44.32c-2.41-3.13-.75-8.52,2.22-11.29a18.67,18.67,0,0,0-6.83,7.22,35.14,35.14,0,0,0-2.49,5.54c6.07,3.25,10.67,9.26,13.53,15.36a52,52,0,0,1,3.51,10.45A24.9,24.9,0,0,0,163,69.69c-.28-.32-.55-.65-.82-1C156,60.74,152.19,52.79,146.29,44.32Z"/><path class="cls-8" d="M126.28,125.39c-5.9,3.59-12.32,5.9-18.47,8.72A49,49,0,0,0,120,133.5c-.32,0-.63-.07-.94-.12A.19.19,0,0,1,119,133c4-2.11,8.71-2.6,12.78-4.62a56.88,56.88,0,0,0,10.58-6.33,31.29,31.29,0,0,0,11.16-17c1.71-7.15,1.29-14.83.67-22.09-.1-1.16-.21-2.32-.35-3.48C152.55,98.15,143,115.55,126.28,125.39Z"/><path class="cls-8" d="M78.3,216.46a2.8,2.8,0,0,1-.5,1.25c1.47-.84,3.18-.08,4.34,1a9.61,9.61,0,0,1,2.35,4.85c.05.21.09.43.13.64.82-.12,1.63-.26,2.44-.42l.14,0c.24-.59.46-1.18.66-1.78.37-1.12.68-2.26.94-3.41.14-.63.24-1.26.37-1.9a5.11,5.11,0,0,1,.13-.53l-.06.11a.58.58,0,0,1,0-.14A37.36,37.36,0,0,1,78.16,212,7.29,7.29,0,0,1,78.3,216.46Z"/><path class="cls-8" d="M153.73,213.9c-4.11,2.82-9,1.28-13.6,1-3.72,0-2.77-2.06-1.78-4.41a19.41,19.41,0,0,1-8,4.44c.28.77.48,1.59.71,2.29l0,.09a5.85,5.85,0,0,1,1.54-.65,4.91,4.91,0,0,1,4.87,1.24,6.44,6.44,0,0,1,1.6-.84,5.54,5.54,0,0,1,6.36,1.62,4.45,4.45,0,0,1,.81-.42,1.11,1.11,0,0,1,.44-.53c1.5-.93,3.27-.16,4.45,1a8.41,8.41,0,0,1,2.12,3.95c.6-.08,1.19-.17,1.79-.27,0-.12.07-.25.1-.37.7-2.76,1.35-5.52,2-8.29.38-1.57.73-3.16,1.06-4.75A12.21,12.21,0,0,1,153.73,213.9Z"/><path class="cls-8" d="M165,172.85a72,72,0,0,0-7.44-14.4,44.12,44.12,0,0,1,4.73,12.27A72,72,0,0,1,164,187.4a1.74,1.74,0,0,1,.4.14,6.7,6.7,0,0,0,2.11.65c.4-2,1.58-4.05,3.52-4.34a2.38,2.38,0,0,1,2-.38,3.47,3.47,0,0,1,3.13-2,5.06,5.06,0,0,1,.68,0,15.22,15.22,0,0,0,.8-3.75,20,20,0,0,0,0-2,3.28,3.28,0,0,1-1.22.7C171.43,178.5,166.3,177,165,172.85Z"/><path class="cls-8" d="M88.82,131.8c-17.63-3.62-32.31-15.66-36.32-32.47a39.29,39.29,0,0,0,3.63,13.55,33.27,33.27,0,0,0,8.39,10.71c4.22,3.61,9.17,6.49,14.78,7a.26.26,0,0,1,0,.52H79c4.32,1.3,8.67,2.56,13.12,2.24C90.87,132.83,89.85,132.06,88.82,131.8Z"/><path class="cls-8" d="M166.22,72.26a27.88,27.88,0,0,1-9.28,2.94c.35,2,.61,4,.8,6.07A30.08,30.08,0,0,0,171,79.61a30.54,30.54,0,0,0,16.13-13.28C181.41,72.25,172.75,75.85,166.22,72.26Z"/><path class="cls-7" d="M129.36,208c-22.66,3.52-45.07,2.1-66-6.2a64.78,64.78,0,0,0,11.47,7.44.33.33,0,0,1,.45-.13,45.33,45.33,0,0,0,16,4.3,108.31,108.31,0,0,0,17.83.2c5.25-.3,10.56-.68,15.78-1.36s10.78-1.77,14.92-5.16a.49.49,0,0,1,.72.07,25,25,0,0,0,2.71-3.73A43.11,43.11,0,0,1,129.36,208Z"/><path class="cls-7" d="M120,133.5c-.31,0-.63-.07-.94-.12A.19.19,0,0,1,119,133l.6-.3c-3.7.42-7.22.67-10.55.8a135,135,0,0,1-17.46-.43c-4.38-.4-8.06-1-11-1.53l-2.26-.46a27,27,0,0,1-6.09-.61c16,13.47,40.22,11.94,59.12,3.73-.51-.85-1-1.63-1.44-2.31C126.77,132.92,123.37,133.81,120,133.5Z"/><path class="cls-8" d="M144.29,125c-.2.15-.39.31-.59.45A38.85,38.85,0,0,1,132,131.31c-.67.2-1.34.42-2,.62.45.68.93,1.46,1.44,2.31,1.75-.75,3.46-1.57,5.11-2.44C139.67,130.24,141.94,127.62,144.29,125Z"/><path class="cls-7" d="M99.1,163.25c-.65,1.54-1.21,3.77-3.14,4.18A2,2,0,0,1,93.64,166a10.34,10.34,0,0,1-.36-3.59,11.92,11.92,0,0,1,.33-3.33c.1-.21.19-.44.28-.66v0c.76-1.35-1.4-2.85-2.29-1.54-.28.41-.51.87-.82,1.25-.59.74-.57.36-.76-.25a7.93,7.93,0,0,1,0-3.36,11.5,11.5,0,0,1,2.47-5.34c.14-.18-.12-.47-.32-.34a10.58,10.58,0,0,0-4.81,9.4,3.33,3.33,0,0,0,2.77,3.29h.49a16.47,16.47,0,0,0,0,3.14c.16,1.68.62,3.51,2,4.55,1.61,1.18,3.56.61,4.9-.65a8.74,8.74,0,0,0,2.38-5A.46.46,0,0,0,99.1,163.25Z"/><path class="cls-7" d="M123.9,180.15a.6.6,0,0,0-1.09-.16c-.63,1.13-1.36.55-1.75.09a2.45,2.45,0,0,1-.39-1.85,6.94,6.94,0,0,1,.58-2.14,10.51,10.51,0,0,1,2.1-3.12c.15-.16-.06-.39-.24-.33-3.06,1-5.83,4.89-4.59,8.16a3.19,3.19,0,0,0,3.63,2.16A2.35,2.35,0,0,0,123.9,180.15Z"/><path class="cls-7" d="M127.35,183.54c-.63-.09-1.32.13-1.91-.13a2.37,2.37,0,0,1-1.19-1.73,11.37,11.37,0,0,1,.26-4.26.12.12,0,0,0-.22-.09,7.75,7.75,0,0,0-2.06,3.44,4.77,4.77,0,0,0,.63,3.72c1.13,1.65,4.7,2.58,5.24-.06C128.2,184,127.75,183.59,127.35,183.54Z"/><path class="cls-7" d="M70.3,178.91a1.8,1.8,0,0,1-3.27-.26,5.27,5.27,0,0,1,.22-3.76c.37-1,.87-1.94,1.3-2.88.1-.24-.23-.39-.39-.25-2.59,2.05-5,5.66-2.72,8.88A3.82,3.82,0,0,0,69,182.28a3,3,0,0,0,2.89-2.92A.86.86,0,0,0,70.3,178.91Z"/><path class="cls-7" d="M73.13,181.88c-1.68-1.18-.95-4-.49-5.68a.23.23,0,0,0-.35-.25,6.43,6.43,0,0,0-2.33,4.4c-.13,1.73.64,3.6,2.55,3.76C73.81,184.22,74,182.51,73.13,181.88Z"/><path class="cls-8" d="M146.73,138.94a8.41,8.41,0,0,0-2-2.26c-.19-.14-1.49-1.23-1.73-.65s.34,1.32.58,1.82.52,1.1.77,1.66a2.41,2.41,0,0,0,1.28,1.48.89.89,0,0,0,1.12-.34c0,.06,0,0,.16-.22a.87.87,0,0,0,.1-.42A1.75,1.75,0,0,0,146.73,138.94Z"/><path class="cls-8" d="M142.93,141.4a.43.43,0,0,0-.67.53c.27.62.58,1.22.82,1.84a10.34,10.34,0,0,0,.79,1.95.5.5,0,0,0,.94-.21C145,144,144,142.39,142.93,141.4Z"/><path class="cls-8" d="M149,147.22a13.42,13.42,0,0,0-2-3.69c-.23-.3-.79-.08-.69.31a13.47,13.47,0,0,0,1.58,3.82C148.25,148.2,149.22,147.89,149,147.22Z"/><path class="cls-8" d="M158.67,189.23a10.74,10.74,0,0,0-.66-3.94c-.15-.35-.81-.45-.85,0-.14,1.45,0,2.91-.11,4.36a26.55,26.55,0,0,0-.38,4.06.66.66,0,0,0,1.19.26A9.23,9.23,0,0,0,158.67,189.23Z"/><path class="cls-8" d="M157.54,197.7a.54.54,0,0,0-.19-.39v-.09c0-.17-.28-.26-.37-.1a1.36,1.36,0,0,0-.35.24c-.08.1-.15.21-.22.31a8.51,8.51,0,0,0-.34.83,5.16,5.16,0,0,0-.39,1.77c0,.62.88,1,1.22.41A5.36,5.36,0,0,0,157.54,197.7Z"/><path class="cls-8" d="M155,190.4a.29.29,0,0,0-.49,0,10.5,10.5,0,0,0-.42,2,11.71,11.71,0,0,0-.34,2.2.5.5,0,0,0,.93.27A4.38,4.38,0,0,0,155,190.4Z"/><path class="cls-8" d="M146.06,61.39c-.33-2.23-1.59-5.14-3.6-6.35-.48-.3-1,.3-.86.77a26.34,26.34,0,0,0,1.53,2.93c.5,1,.91,2.07,1.37,3.09A.82.82,0,0,0,146.06,61.39Z"/><path class="cls-8" d="M147.6,67.05a10.51,10.51,0,0,0-.69-1.9.43.43,0,0,0-.79.21,8.42,8.42,0,0,0,.68,3.69c.34.61,1.11.13,1.14-.4A5.2,5.2,0,0,0,147.6,67.05Z"/><path class="cls-8" d="M142.29,59.89c-.32-.41-.93,0-.85.45.31,1.79.81,3.53,1.05,5.35.11.78,1.39.88,1.43,0A9.09,9.09,0,0,0,142.29,59.89Z"/><path class="cls-8" d="M64.86,58.31a.43.43,0,0,0-.53-.29,1.9,1.9,0,0,0-1,1,7.09,7.09,0,0,0-.77,1.5.72.72,0,0,0,1.22.73,6.64,6.64,0,0,0,.7-1.35A2.41,2.41,0,0,0,64.86,58.31Z"/><path class="cls-8" d="M68.55,53.09a7.29,7.29,0,0,0-1.14,1.34,5,5,0,0,0-.52,1,3.41,3.41,0,0,0-.1.64.23.23,0,0,0,.32.23,4.15,4.15,0,0,0,1.43-.93,7.41,7.41,0,0,0,1.15-1.52C70.12,53.18,69.09,52.55,68.55,53.09Z"/><path class="cls-3" d="M89,82.93c-3.68.85-7,4.76-6.12,8.65a.31.31,0,0,0,.59.06c1.41-3.31,2.82-6.16,5.62-8.53A.1.1,0,0,0,89,82.93Z"/><path class="cls-3" d="M82.92,92.16s0,0,0,0S82.93,92.16,82.92,92.16Z"/><path class="cls-3" d="M83.08,93.68a.43.43,0,0,0-.27-.31s-.23,0-.21,0l-.38.48,0,.09a2,2,0,0,0,0,.24,1.83,1.83,0,0,0,0,.4.49.49,0,0,0,.39.53.48.48,0,0,0,.53-.4A3.55,3.55,0,0,0,83.08,93.68Z"/></g></g></svg>